<svg width="40" height="40" viewBox="0 0 40 40" fill="none" xmlns="http://www.w3.org/2000/svg">
<g clip-path="url(#clip0_361_2158)">
<path d="M33.091 4.79907H6.909C5.302 4.79907 4 6.10107 4 7.70807V32.9201C4 34.5271 5.302 35.8291 6.909 35.8291H28.242L36 28.0711V7.70807C36 6.10107 34.698 4.79907 33.091 4.79907Z" fill="#E5E9EE"/>
<path d="M11 19.4531C11 19.0001 11.233 18.5781 11.618 18.3381L14.627 16.4561C14.934 16.2641 15.289 16.1621 15.651 16.1621C16.717 16.1621 17.582 17.0261 17.582 18.0931V29.2471C17.582 30.1261 16.869 30.8391 15.99 30.8391C15.111 30.8391 14.398 30.1261 14.398 29.2471V19.7151L13.008 20.5731C12.132 21.1141 11.002 20.4841 11.002 19.4541L11 19.4531Z" fill="#EF4452"/>
<path d="M19.2344 17.6472C19.2344 16.9342 19.8124 16.3562 20.5254 16.3562H27.8384C28.4794 16.3562 28.9994 16.8762 28.9994 17.5172C28.9994 18.2632 28.8464 19.0002 28.5484 19.6842L24.1244 29.8622C23.8664 30.4552 23.2814 30.8392 22.6344 30.8392C21.4564 30.8392 20.6704 29.6262 21.1504 28.5512L25.4474 18.9392H20.5264C19.8134 18.9392 19.2354 18.3612 19.2354 17.6482L19.2344 17.6472Z" fill="#EF4452"/>
<path d="M6.909 4.79907H33.091C34.697 4.79907 36 6.10307 36 7.70807V12.3941H4V7.70807C4 6.10207 5.304 4.79907 6.909 4.79907Z" fill="#FDAEB3"/>
<path d="M10.3018 7.223C9.63284 7.223 9.08984 6.681 9.08984 6.011V3.587C9.08984 2.917 9.63184 2.375 10.3018 2.375C10.9718 2.375 11.5138 2.917 11.5138 3.587V6.011C11.5138 6.681 10.9718 7.223 10.3018 7.223Z" fill="#4B596A"/>
<path d="M29.6964 7.223C29.0274 7.223 28.4844 6.681 28.4844 6.011V3.587C28.4844 2.917 29.0264 2.375 29.6964 2.375C30.3664 2.375 30.9084 2.917 30.9084 3.587V6.011C30.9084 6.681 30.3664 7.223 29.6964 7.223Z" fill="#4B596A"/>
<path fill-rule="evenodd" clip-rule="evenodd" d="M30.1822 28.072H36.0002L28.2422 35.83V30.012C28.2422 28.941 29.1102 28.073 30.1812 28.073L30.1822 28.072Z" fill="#C0C7D1"/>
</g>
<defs>
<clipPath id="clip0_361_2158">
<rect width="40" height="40" fill="white"/>
</clipPath>
</defs>
</svg>
