<svg width="40" height="40" viewBox="0 0 40 40" fill="none" xmlns="http://www.w3.org/2000/svg">
<g clip-path="url(#clip0_393_1823)">
<path d="M35.3834 12.317C36.4324 8.252 39.0614 1.5 39.0614 1.5C36.6644 5.069 33.3114 9.038 30.8304 8.541C28.4504 8.064 29.9554 5.096 33.6334 3.126C28.7974 4.208 14.2074 6.843 7.75636 13.293C1.92536 19.124 1.29836 27.95 6.35536 33.007C11.4124 38.064 20.4714 37.658 26.0694 31.606C32.2684 24.904 34.0634 17.436 35.3834 12.317Z" fill="#FF9E00"/>
<path d="M18.2508 14.584C16.9268 15.563 16.2158 16.816 17.3128 17.266C18.8988 17.916 20.3988 15.801 23.2718 15.321C25.7168 14.913 27.0348 15.163 27.0348 15.163C24.1688 14.905 21.4358 18.954 21.8678 20.567C22.2818 22.115 24.1168 21.285 25.2128 19.016C24.7388 22.068 24.3598 27.595 20.5178 31.438C17.0448 34.911 11.4128 34.911 7.93978 31.438C4.46678 27.965 4.31378 22.174 7.93978 18.86C11.9548 15.19 15.8808 15.166 18.2508 14.584Z" fill="#FFCD00"/>
<path d="M13.4167 31.7859C16.6304 31.7859 19.2357 29.1807 19.2357 25.9669C19.2357 22.7532 16.6304 20.1479 13.4167 20.1479C10.2029 20.1479 7.59766 22.7532 7.59766 25.9669C7.59766 29.1807 10.2029 31.7859 13.4167 31.7859Z" fill="#E21200"/>
</g>
<defs>
<clipPath id="clip0_393_1823">
<rect width="40" height="40" fill="white"/>
</clipPath>
</defs>
</svg>
