<svg width="40" height="40" viewBox="0 0 40 40" fill="none" xmlns="http://www.w3.org/2000/svg">
<g clip-path="url(#clip0_361_2153)">
<path d="M31.2208 11.07C31.6298 13.799 32.1048 15.361 30.1528 15.361C27.4968 15.361 27.4958 9.07497 23.0008 5.49397C18.5538 1.95197 15.2368 2.81297 15.1668 2.83197C15.1658 2.83297 15.1638 2.83497 15.1628 2.83597C18.8668 5.92797 16.8008 11.01 14.3768 12.411C12.0508 13.755 9.39584 12.06 10.7858 8.07097C7.72884 12.251 5.08984 17.316 5.08984 22.363C5.08984 30.598 11.7658 37.274 20.0008 37.274C28.2358 37.274 34.9118 30.598 34.9118 22.363C34.9118 18.472 33.3398 14.57 31.2208 11.07Z" fill="#EF4452"/>
<path d="M19.9996 20.0181C19.9996 20.0181 26.4836 23.7521 26.4836 28.9691C26.4836 32.5501 23.5806 35.4531 19.9996 35.4531C16.4186 35.4531 13.5156 32.5501 13.5156 28.9691C13.5156 23.7521 19.9996 20.0181 19.9996 20.0181Z" fill="#FF7978"/>
</g>
<defs>
<clipPath id="clip0_361_2153">
<rect width="40" height="40" fill="white"/>
</clipPath>
</defs>
</svg>
