<svg width="40" height="40" viewBox="0 0 40 40" fill="none" xmlns="http://www.w3.org/2000/svg">
<g clip-path="url(#clip0_361_2202)">
<path d="M35.5795 19.5499L29.8095 25.3099C28.4895 26.6299 26.8495 27.5299 25.0695 27.9499C24.3195 28.1299 23.5395 28.2299 22.7495 28.2299C21.6995 28.2299 20.6795 28.0699 19.7095 27.7599C19.0595 27.5499 18.4295 27.2699 17.8295 26.9299C17.7695 26.8899 17.6995 26.8499 17.6295 26.8099C17.3695 26.6499 17.1095 26.4799 16.8495 26.2899C16.7695 26.2299 16.6795 26.1599 16.5895 26.0999C16.2795 25.8499 15.9795 25.5899 15.6895 25.3099C15.4095 25.0199 15.1495 24.7199 14.8995 24.4099C14.8395 24.3199 14.7695 24.2299 14.6995 24.1399C14.5195 23.8899 14.3495 23.6299 14.1895 23.3699C14.1595 23.3199 14.1195 23.2699 14.0895 23.2199C14.0795 23.1999 14.0695 23.1699 14.0595 23.1499C13.2195 21.6699 12.7695 19.9999 12.7695 18.2499C12.7695 18.0799 12.7795 17.9099 12.7895 17.7399L13.0095 17.5199C14.1495 16.3899 15.6495 15.7699 17.2495 15.7699H17.3095C16.9595 16.5399 16.7695 17.3799 16.7695 18.2499C16.7695 19.3499 17.0695 20.3999 17.6195 21.3199C17.7195 21.4799 17.8195 21.6299 17.9295 21.7799C17.9695 21.8399 18.0095 21.8899 18.0495 21.9399C18.1895 22.1299 18.3495 22.3099 18.5195 22.4799C18.6895 22.6499 18.8695 22.8099 19.0595 22.9499C19.1095 22.9899 19.1595 23.0299 19.2195 23.0699C19.3695 23.1799 19.5195 23.2799 19.6795 23.3799C20.5895 23.9199 21.6095 24.2199 22.6895 24.2299H22.7495C24.3495 24.2299 25.8495 23.6099 26.9895 22.4799L27.2095 22.2599L32.7495 16.7199C35.0795 14.3799 35.0795 10.5899 32.7495 8.24994C30.4095 5.91994 26.6195 5.91994 24.2795 8.24994L22.5995 9.93994L21.5395 10.9999L20.2895 12.2399C19.3195 11.9299 18.2995 11.7699 17.2495 11.7699C16.4595 11.7699 15.6795 11.8699 14.9295 12.0499C15.1695 11.7499 15.4195 11.4599 15.6895 11.1899L18.7095 8.16994L21.4495 5.41994C25.3395 1.52994 31.6795 1.52994 35.5795 5.41994C39.4695 9.31994 39.4695 15.6499 35.5795 19.5499Z" fill="#AFB7C0"/>
<path d="M25.9379 16.8459C26.4379 17.7939 26.1069 18.9749 25.1689 19.5129C24.2109 20.0629 22.9879 19.7309 22.4389 18.7729C22.4209 18.7419 22.3979 18.7139 22.3789 18.6829C22.9309 19.6019 23.2319 20.6529 23.2319 21.7529C23.2319 22.6229 23.0419 23.4609 22.6919 24.2299C22.7119 24.2299 22.7319 24.2329 22.7519 24.2329C24.3509 24.2329 25.8539 23.6109 26.9839 22.4799L27.2069 22.2579C27.2149 22.0899 27.2319 21.9229 27.2319 21.7539C27.2319 20.0049 26.7779 18.3269 25.9379 16.8459Z" fill="#6B7683"/>
<path d="M19.7087 27.7559L15.7188 31.7469C16.4998 30.9659 17.7658 30.9659 18.5468 31.7469C19.3278 32.5279 19.3278 33.7949 18.5468 34.5749L24.3078 28.8129C24.5808 28.5399 24.8308 28.2499 25.0678 27.9519C24.3168 28.1299 23.5438 28.2319 22.7528 28.2319C21.7038 28.2319 20.6807 28.0659 19.7087 27.7559Z" fill="#6B7683"/>
<path d="M18.5457 31.7468C17.7647 30.9658 16.4987 30.9658 15.7177 31.7468C13.3847 34.0788 9.58666 34.0798 7.25166 31.7468C4.91866 29.4128 4.91866 25.6148 7.25166 23.2808L12.7907 17.7428L13.0137 17.5208C14.1447 16.3898 15.6477 15.7678 17.2457 15.7678C17.2657 15.7678 17.2857 15.7708 17.3057 15.7708C18.8817 15.7868 20.3607 16.4048 21.4777 17.5208C21.6487 17.6918 21.8047 17.8748 21.9527 18.0628C21.9927 18.1138 22.0287 18.1648 22.0667 18.2168C22.1777 18.3678 22.2817 18.5238 22.3777 18.6828C22.3957 18.7138 22.4197 18.7418 22.4377 18.7728C22.9877 19.7308 24.2097 20.0628 25.1677 19.5128C26.1047 18.9748 26.4367 17.7938 25.9367 16.8458C25.9257 16.8248 25.9197 16.8028 25.9087 16.7818C25.8787 16.7298 25.8407 16.6848 25.8097 16.6338C25.6507 16.3678 25.4777 16.1088 25.2927 15.8578C25.2267 15.7678 25.1627 15.6778 25.0937 15.5898C24.8477 15.2778 24.5887 14.9748 24.3057 14.6918C23.1617 13.5478 21.7877 12.7208 20.2897 12.2438C19.3177 11.9338 18.2947 11.7678 17.2457 11.7678C16.4547 11.7678 15.6817 11.8698 14.9307 12.0478C13.1497 12.4688 11.5117 13.3658 10.1857 14.6928L4.42366 20.4538C0.530656 24.3478 0.530656 30.6828 4.42366 34.5758C6.37066 36.5218 8.92766 37.4958 11.4857 37.4958C14.0437 37.4958 16.5987 36.5218 18.5467 34.5758C19.3277 33.7958 19.3277 32.5288 18.5467 31.7478L18.5457 31.7468Z" fill="#8A94A0"/>
</g>
<defs>
<clipPath id="clip0_361_2202">
<rect width="40" height="40" fill="white"/>
</clipPath>
</defs>
</svg>
