<svg width="40" height="40" viewBox="0 0 40 40" fill="none" xmlns="http://www.w3.org/2000/svg">
<g clip-path="url(#clip0_361_2221)">
<path d="M29.5458 26.371L24.5378 24.468C21.6138 23.357 18.3848 23.357 15.4608 24.468L10.4528 26.371C8.04178 27.287 6.04678 29.007 4.78178 31.209C4.26278 32.113 3.93478 33.113 3.68578 34.125L3.04578 36.726C2.94878 37.119 3.24678 37.499 3.65178 37.499H36.3468C36.7518 37.499 37.0498 37.119 36.9528 36.726L36.3128 34.124C36.0638 33.112 35.7358 32.112 35.2168 31.208C33.9528 29.005 31.9568 27.286 29.5468 26.37L29.5458 26.371Z" fill="#5A81FF"/>
<path d="M11.6404 19.58C10.8884 19.576 10.1894 19.358 9.60938 18.988L10.5774 22.874C10.7704 23.647 11.4644 24.189 12.2604 24.189H16.1804C14.1594 23.258 12.5354 21.618 11.6404 19.58Z" fill="#333333"/>
<path d="M23.8174 24.19H27.6944C28.5484 24.19 29.2744 23.569 29.4074 22.726L29.9624 19.207C29.4764 19.436 28.9354 19.577 28.3564 19.58C27.4614 21.618 25.8384 23.259 23.8174 24.19Z" fill="#333333"/>
<path d="M10.7969 14.661C10.8849 14.82 11.0989 14.856 11.2199 14.72L16.9959 8.25698C16.9959 8.25698 24.3139 14.134 29.1429 13.813C29.2489 13.806 29.3719 13.769 29.4929 13.717C29.8049 13.541 30.0679 13.227 30.3089 13.273C30.3169 13.274 30.3249 13.269 30.3319 13.271C30.4279 6.71898 24.5359 1.42198 17.7769 2.68798C13.5559 3.47798 10.1779 6.89498 9.43686 11.125C9.30286 11.888 9.25186 12.639 9.27486 13.371C9.27686 13.428 9.32086 13.476 9.37786 13.479C9.37986 13.479 9.38186 13.481 9.38186 13.481C9.61586 13.483 10.2129 13.602 10.7959 14.661H10.7969Z" fill="#333333"/>
<path d="M31.999 16.1501C31.999 14.9381 31.321 13.8821 30.309 13.2731C30.068 13.2271 29.805 13.5411 29.493 13.7171C29.372 13.7691 29.249 13.8061 29.143 13.8131C24.314 14.1341 16.996 8.25708 16.996 8.25708L11.22 14.7201C11.099 14.8551 10.885 14.8201 10.797 14.6611C10.214 13.6031 9.617 13.4831 9.383 13.4811C9.381 13.4811 9.38 13.4791 9.379 13.4791C8.542 14.1071 8 15.0661 8 16.1501C8 17.3261 8.638 18.3691 9.609 18.9881C10.189 19.3581 10.888 19.5761 11.64 19.5801C12.535 21.6181 14.159 23.2591 16.18 24.1901C17.342 24.7261 18.634 25.0301 20 25.0301C21.366 25.0301 22.657 24.7251 23.82 24.1901C25.841 23.2591 27.465 21.6181 28.36 19.5801C28.939 19.5771 29.48 19.4351 29.966 19.2071C31.167 18.6421 31.999 17.4881 31.999 16.1501Z" fill="#FFCCA8"/>
<path d="M17.4329 16.617C17.9698 16.617 18.4049 16.0945 18.4049 15.45C18.4049 14.8054 17.9698 14.283 17.4329 14.283C16.8961 14.283 16.4609 14.8054 16.4609 15.45C16.4609 16.0945 16.8961 16.617 17.4329 16.617Z" fill="black"/>
<path d="M22.5658 16.617C23.1026 16.617 23.5378 16.0945 23.5378 15.45C23.5378 14.8054 23.1026 14.283 22.5658 14.283C22.0289 14.283 21.5938 14.8054 21.5938 15.45C21.5938 16.0945 22.0289 16.617 22.5658 16.617Z" fill="black"/>
<path d="M21.2072 20.051C21.4262 20.051 21.5812 20.261 21.5232 20.472C21.3392 21.142 20.7262 21.633 19.9982 21.633C19.2702 21.633 18.6572 21.141 18.4732 20.472C18.4152 20.261 18.5702 20.051 18.7892 20.051H21.2082H21.2072Z" fill="#5C2F17"/>
<path d="M17.8086 23.6279H22.1906V27.7869C22.1906 28.9959 21.2086 29.9779 19.9996 29.9779C18.7906 29.9779 17.8086 28.9959 17.8086 27.7869V23.6279Z" fill="#FFCCA8"/>
<path d="M34.1472 37.4999H5.84917L4.62517 23.0159C4.57017 22.3709 5.07917 21.8169 5.72717 21.8169H34.2692C34.9162 21.8169 35.4252 22.3709 35.3712 23.0159L34.1472 37.4999Z" fill="#C4C4C4"/>
</g>
<defs>
<clipPath id="clip0_361_2221">
<rect width="40" height="40" fill="white"/>
</clipPath>
</defs>
</svg>
