<svg width="40" height="40" viewBox="0 0 40 40" fill="none" xmlns="http://www.w3.org/2000/svg">
<g clip-path="url(#clip0_393_2181)">
<path d="M10.1037 34.4941C11.3447 33.2531 11.3447 31.2401 10.1037 29.9991C8.86275 28.7581 6.84975 28.7581 5.60875 29.9991C4.36775 31.2401 3.34375 36.7601 3.34375 36.7601C3.34375 36.7601 8.86275 35.7361 10.1048 34.4951L10.1037 34.4941Z" fill="#FF3D29"/>
<path d="M15.09 33.8131L6.29397 25.0171C6.00197 24.7251 6.10297 24.2311 6.48497 24.0761L10.529 22.4351L17.695 29.6011L16.029 33.6261C15.872 34.0051 15.381 34.1031 15.09 33.8131Z" fill="#8595AA"/>
<path d="M35.622 8.78929L29.482 34.9013C28.839 37.6363 25.443 38.6023 23.457 36.6153L3.48604 16.6433C1.50004 14.6573 2.46604 11.2613 5.20004 10.6183L31.312 4.47829C33.904 3.86929 36.232 6.19729 35.623 8.78929H35.622Z" fill="#8595AA"/>
<path d="M36.3623 3.73878C38.9708 6.3473 38.9701 10.5822 36.3623 13.19L18.1932 31.3591L8.74202 21.9079L26.9111 3.73878C29.5196 1.13026 33.7545 1.13097 36.3623 3.73878Z" fill="#D0D6DE"/>
<path d="M30.1322 13.8151C32.2568 13.8151 33.9792 12.0927 33.9792 9.96809C33.9792 7.84345 32.2568 6.12109 30.1322 6.12109C28.0075 6.12109 26.2852 7.84345 26.2852 9.96809C26.2852 12.0927 28.0075 13.8151 30.1322 13.8151Z" fill="#6BA0FF"/>
</g>
<defs>
<clipPath id="clip0_393_2181">
<rect width="40" height="40" fill="white"/>
</clipPath>
</defs>
</svg>
