<svg width="41" height="41" viewBox="0 0 41 41" fill="none" xmlns="http://www.w3.org/2000/svg">
<g clip-path="url(#clip0_393_2189)">
<path d="M20.625 37.8646C30.29 37.8646 38.125 30.0296 38.125 20.3646C38.125 10.6996 30.29 2.86462 20.625 2.86462C10.96 2.86462 3.125 10.6996 3.125 20.3646C3.125 30.0296 10.96 37.8646 20.625 37.8646Z" fill="#FFC84D"/>
<path d="M25.6832 23.6246C29.4951 23.6246 32.5852 20.5345 32.5852 16.7226C32.5852 12.9107 29.4951 9.82062 25.6832 9.82062C21.8714 9.82062 18.7812 12.9107 18.7812 16.7226C18.7812 20.5345 21.8714 23.6246 25.6832 23.6246Z" fill="white"/>
<path d="M28.6152 11.7446C27.7562 11.2376 26.7552 10.9476 25.6852 10.9476C22.4952 10.9476 19.9102 13.5336 19.9102 16.7226C19.9102 18.5806 20.7882 20.2336 22.1512 21.2906C23.1282 22.0476 24.3542 22.4986 25.6862 22.4986C28.8762 22.4986 31.4612 19.9126 31.4612 16.7236C31.4612 14.6036 30.3182 12.7486 28.6152 11.7446ZM23.5612 19.4136C22.8352 19.4136 22.1792 19.1156 21.7062 18.6366L23.9822 14.2396C25.2212 14.4416 26.1692 15.5096 26.1692 16.8056C26.1692 18.2456 25.0012 19.4136 23.5612 19.4136Z" fill="#E0E0E0"/>
<path d="M14.8721 13.6326C13.8361 13.6326 12.9961 14.4726 12.9961 15.5086C12.9961 16.5446 13.8361 17.3846 14.8721 17.3846C15.9081 17.3846 16.7481 16.5446 16.7481 15.5086C16.7481 14.4726 15.9081 13.6326 14.8721 13.6326Z" fill="black"/>
<path d="M21.7061 18.6366L23.9821 14.2396C23.8441 14.2176 23.7051 14.1976 23.5611 14.1976C22.1211 14.1976 20.9531 15.3656 20.9531 16.8056C20.9531 17.5196 21.2411 18.1656 21.7061 18.6366Z" fill="#6B6B6B"/>
<path d="M23.983 14.2386L21.707 18.6356C22.18 19.1146 22.836 19.4126 23.562 19.4126C25.003 19.4126 26.17 18.2446 26.17 16.8046C26.17 15.5086 25.222 14.4406 23.983 14.2386Z" fill="black"/>
<path d="M23.5612 14.1966C23.7052 14.1966 23.8442 14.2166 23.9822 14.2386L25.6852 10.9476C22.4952 10.9476 19.9102 13.5336 19.9102 16.7226C19.9102 17.9656 20.3022 19.1166 20.9702 20.0586L21.7062 18.6366C21.2412 18.1656 20.9532 17.5196 20.9532 16.8056C20.9532 15.3656 22.1212 14.1976 23.5612 14.1976V14.1966Z" fill="#EDEDED"/>
<path d="M17.7687 26.0176C19.1797 26.1406 20.2287 26.5016 20.8917 26.8056C21.1767 26.9356 21.4577 26.6196 21.2967 26.3506C20.7777 25.4846 19.7467 24.3016 17.9327 24.1426C16.1187 23.9836 14.8977 24.9696 14.2357 25.7326C14.0307 25.9696 14.2527 26.3306 14.5557 26.2516C15.2617 26.0676 16.3567 25.8936 17.7687 26.0176Z" fill="#FF6D00"/>
<path d="M14.369 11.1236C15.529 11.2246 16.176 11.5496 16.724 11.8506C17.04 12.0236 17.315 11.7906 17.18 11.4296C16.89 10.6496 16.02 9.76259 14.5 9.62959C12.98 9.49659 11.969 10.2186 11.548 10.9366C11.353 11.2686 11.583 11.5456 11.924 11.4296C12.516 11.2296 13.209 11.0226 14.369 11.1236Z" fill="black"/>
<path d="M24.3228 8.12359C23.1628 8.22459 22.5158 8.54959 21.9678 8.85059C21.6518 9.02359 21.3768 8.79059 21.5118 8.42959C21.8018 7.64959 22.6718 6.76259 24.1918 6.62959C25.7118 6.49659 26.7228 7.21859 27.1438 7.93659C27.3388 8.26859 27.1088 8.54559 26.7678 8.42959C26.1758 8.22959 25.4828 8.02259 24.3228 8.12359Z" fill="black"/>
</g>
<defs>
<clipPath id="clip0_393_2189">
<rect width="40" height="40" fill="white" transform="translate(0.625 0.364624)"/>
</clipPath>
</defs>
</svg>
