<svg width="40" height="40" viewBox="0 0 40 40" fill="none" xmlns="http://www.w3.org/2000/svg">
<g clip-path="url(#clip0_393_2174)">
<path d="M25.954 35.8021C22.055 35.8021 19 31.4761 19 25.9521V17.0431C19 16.4901 19.447 16.0431 20 16.0431C20.553 16.0431 21 16.4901 21 17.0431V25.9521C21 30.2071 23.269 33.8021 25.954 33.8021C26.507 33.8021 26.954 34.2491 26.954 34.8021C26.954 35.3551 26.507 35.8021 25.954 35.8021Z" fill="#23B169"/>
<path d="M1.70703 6.48105C4.90303 4.64005 9.50103 4.73205 13.56 7.07505C17.618 9.41805 19.998 13.3551 20.001 17.0431C16.805 18.8841 12.206 18.7921 8.14803 16.4491C4.09003 14.1061 1.71003 10.1691 1.70703 6.48105Z" fill="#68C76F"/>
<path d="M38.294 6.48105C35.098 4.64005 30.5 4.73205 26.441 7.07505C22.383 9.41805 20.003 13.3551 20 17.0431C23.196 18.8841 27.795 18.7921 31.853 16.4491C35.911 14.1061 38.291 10.1691 38.294 6.48105Z" fill="#68C76F"/>
</g>
<defs>
<clipPath id="clip0_393_2174">
<rect width="40" height="40" fill="white"/>
</clipPath>
</defs>
</svg>
