<svg width="40" height="40" viewBox="0 0 40 40" fill="none" xmlns="http://www.w3.org/2000/svg">
<g clip-path="url(#clip0_361_2169)">
<path d="M22.8805 12.595C22.7815 12.018 22.9195 11.421 23.2685 10.952C23.5065 10.633 23.7185 10.47 23.7185 10.47C24.9845 9.34098 25.3825 7.78398 25.4945 7.17198C25.5125 7.07298 25.6355 7.03998 25.7015 7.11598C26.1825 7.67598 27.6845 9.20598 29.9945 9.54898C32.1945 9.87598 33.2265 11.337 32.9325 13.042C32.5285 14.609 31.4585 15.878 30.0675 16.535C30.6955 16.692 31.2965 16.909 31.8585 17.191C33.0985 16.988 33.8325 16.702 34.2415 16.454C34.5725 16.253 34.7805 15.898 34.7895 15.51C34.8675 12.174 34.3735 9.29498 33.8755 7.93498C33.2055 6.10998 31.2065 4.09298 28.5885 3.82098C25.9705 3.54898 24.7975 5.24898 24.7975 5.24898C20.5305 7.11898 21.3335 15.942 21.3335 15.942C21.3335 15.942 21.5475 16.728 24.0235 17.166C24.5865 16.889 25.1875 16.674 25.8165 16.521C24.3085 15.798 23.1825 14.352 22.8805 12.594V12.595Z" fill="#FF8800"/>
<path d="M31.861 17.192C31.299 16.91 30.698 16.693 30.07 16.536C29.423 16.842 28.713 17.028 27.956 17.028C27.19 17.028 26.472 16.836 25.818 16.522C25.19 16.675 24.588 16.889 24.025 17.167C22.174 18.08 20.731 19.622 20 21.494C20.337 22.358 20.53 23.287 20.53 24.261V36.207H21.24C21.24 33.961 22.606 32.033 24.553 31.21C23.779 30.762 23.156 30.089 22.792 29.266C21.858 29.264 21.101 28.553 21.101 27.676C21.101 27.154 21.372 26.696 21.786 26.405C21.778 26.192 21.782 25.976 21.803 25.756C22.018 23.474 23.843 21.621 26.122 21.377C29.085 21.059 31.588 23.434 31.545 26.342C31.503 26.342 31.47 26.333 31.429 26.332C31.906 26.613 32.225 27.108 32.225 27.676C32.225 28.553 31.468 29.264 30.534 29.266C30.17 30.089 29.546 30.763 28.773 31.21C30.72 32.033 32.086 33.96 32.086 36.207H36.363V24.261C36.363 21.194 34.538 18.534 31.861 17.192Z" fill="#482EC4"/>
<path d="M32.9349 13.043C33.2289 11.338 32.1969 9.87598 29.9969 9.54998C27.6869 9.20698 26.1849 7.67698 25.7039 7.11698C25.6389 7.04098 25.5149 7.07398 25.4969 7.17298C25.3849 7.78498 24.9869 9.34198 23.7209 10.471C23.7209 10.471 23.5089 10.633 23.2709 10.953C22.9209 11.422 22.7839 12.02 22.8829 12.596C23.1849 14.354 24.3109 15.8 25.8189 16.523C26.4729 16.836 27.1899 17.029 27.9569 17.029C28.7139 17.029 29.4239 16.843 30.0709 16.537C31.4619 15.879 32.5319 14.61 32.9359 13.044L32.9349 13.043ZM29.4319 10.759C29.7489 10.759 30.0059 11.067 30.0059 11.447C30.0059 11.827 29.7489 12.135 29.4319 12.135C29.1149 12.135 28.8579 11.827 28.8579 11.447C28.8579 11.067 29.1149 10.759 29.4319 10.759ZM27.2029 14.472H28.6319C28.7609 14.472 28.8519 14.596 28.8179 14.72C28.7099 15.115 28.3479 15.406 27.9179 15.406C27.4879 15.406 27.1259 15.115 27.0179 14.72C26.9839 14.596 27.0739 14.472 27.2029 14.472ZM26.4029 10.759C26.7199 10.759 26.9769 11.067 26.9769 11.447C26.9769 11.827 26.7199 12.135 26.4029 12.135C26.0859 12.135 25.8289 11.827 25.8289 11.447C25.8289 11.067 26.0859 10.759 26.4029 10.759Z" fill="#FFC84D"/>
<path d="M26.4021 12.135C26.7191 12.135 26.9761 11.827 26.9761 11.447C26.9761 11.0671 26.7191 10.759 26.4021 10.759C26.0851 10.759 25.8281 11.0671 25.8281 11.447C25.8281 11.827 26.0851 12.135 26.4021 12.135Z" fill="black"/>
<path d="M29.4334 12.135C29.7504 12.135 30.0074 11.827 30.0074 11.447C30.0074 11.067 29.7504 10.759 29.4334 10.759C29.1164 10.759 28.8594 11.067 28.8594 11.447C28.8594 11.827 29.1164 12.135 29.4334 12.135Z" fill="black"/>
<path d="M27.916 15.4049C28.346 15.4049 28.708 15.1139 28.816 14.7189C28.85 14.5949 28.759 14.4709 28.63 14.4709H27.201C27.072 14.4709 26.981 14.5949 27.015 14.7189C27.124 15.1139 27.486 15.4049 27.916 15.4049Z" fill="#5C2F17"/>
<path d="M19.9997 21.494C19.1257 19.254 17.2287 17.49 14.8417 16.708C14.0337 17.263 13.0937 17.587 12.0837 17.587C11.0737 17.587 10.1337 17.263 9.32572 16.708C6.01672 17.791 3.63672 20.76 3.63672 24.261V36.207H7.91372C7.91372 34.017 9.21472 32.134 11.0847 31.279C10.8367 31.123 10.6037 30.946 10.3937 30.742L10.1757 31.415C10.0847 31.696 9.75072 31.813 9.50372 31.65L8.65272 31.087C8.39472 30.916 8.38372 30.542 8.63072 30.356L9.58872 29.638C9.54872 29.561 9.50072 29.49 9.46572 29.411C8.53172 29.409 7.77472 28.698 7.77472 27.821C7.77472 27.318 8.02872 26.876 8.41672 26.584C8.38772 26.584 8.36772 26.587 8.36772 26.587C8.35772 26.362 8.36372 26.132 8.38572 25.9C8.55772 24.07 9.76672 22.516 11.4137 21.846C11.8657 21.662 12.3617 21.612 12.8457 21.677L13.0647 21.706C13.1497 21.717 13.2357 21.716 13.3207 21.702L13.7487 21.631C14.0107 21.588 14.2807 21.596 14.5357 21.668C16.6287 22.25 18.1617 24.203 18.1277 26.485C18.1257 26.485 18.1227 26.485 18.1207 26.485C18.5877 26.768 18.8997 27.259 18.8997 27.819C18.8997 28.696 18.1427 29.407 17.2087 29.409C17.1797 29.473 17.1397 29.531 17.1087 29.594L18.1227 30.355C18.3697 30.541 18.3587 30.915 18.1007 31.086L17.2497 31.649C17.0027 31.812 16.6687 31.695 16.5777 31.414L16.3417 30.686C16.1167 30.913 15.8607 31.106 15.5897 31.277C17.4587 32.133 18.7607 34.015 18.7607 36.205H20.5307V24.259C20.5307 23.285 20.3377 22.355 20.0007 21.492L19.9997 21.494Z" fill="#5268E9"/>
<path d="M18.1814 10.3501V10.4401L17.4114 11.1401C17.2614 11.2701 17.0214 11.1801 17.0014 10.9801C16.9714 10.6201 16.8514 10.1201 16.5414 9.66015C16.1114 9.04015 15.3014 8.50015 13.7314 8.52015C10.0614 8.56015 9.35141 6.40015 9.35141 6.40015C9.35141 6.40015 8.77141 8.26015 8.07141 9.71015C7.83141 10.1901 7.59141 10.6201 7.35141 10.9301C7.17141 11.1501 6.84141 11.1801 6.63141 10.9901L5.99141 10.4501V10.3401C5.65141 10.7001 5.44141 11.1601 5.44141 11.6801C5.44141 12.6301 6.13141 13.4101 7.06141 13.6401C7.50141 14.9301 8.30141 16.0101 9.33141 16.7101C10.1314 17.2601 11.0714 17.5901 12.0814 17.5901C13.0914 17.5901 14.0314 17.2601 14.8414 16.7101C15.8614 16.0101 16.6714 14.9301 17.1014 13.6401C18.0414 13.4101 18.7314 12.6301 18.7314 11.6801C18.7314 11.1701 18.5214 10.7001 18.1814 10.3501ZM10.5714 11.9601C10.2514 11.9601 10.0014 11.6501 10.0014 11.2701C10.0014 10.8901 10.2514 10.5801 10.5714 10.5801C10.8914 10.5801 11.1414 10.8901 11.1414 11.2701C11.1414 11.6501 10.8914 11.9601 10.5714 11.9601ZM12.0814 15.7301C11.6514 15.7301 11.2914 15.4401 11.1814 15.0401C11.1514 14.9201 11.2414 14.7901 11.3714 14.7901H12.8014C12.9314 14.7901 13.0214 14.9201 12.9814 15.0401C12.8814 15.4401 12.5114 15.7301 12.0814 15.7301ZM13.6014 11.9601C13.2814 11.9601 13.0214 11.6501 13.0214 11.2701C13.0214 10.8901 13.2814 10.5801 13.6014 10.5801C13.9214 10.5801 14.1714 10.8901 14.1714 11.2701C14.1714 11.6501 13.9214 11.9601 13.6014 11.9601Z" fill="#FFC84D"/>
<path d="M10.5701 11.9571C10.8871 11.9571 11.1441 11.6491 11.1441 11.2691C11.1441 10.8891 10.8871 10.5811 10.5701 10.5811C10.2531 10.5811 9.99609 10.8891 9.99609 11.2691C9.99609 11.6491 10.2531 11.9571 10.5701 11.9571Z" fill="black"/>
<path d="M13.5974 11.9571C13.9144 11.9571 14.1714 11.649 14.1714 11.2691C14.1714 10.8891 13.9144 10.5811 13.5974 10.5811C13.2804 10.5811 13.0234 10.8891 13.0234 11.2691C13.0234 11.649 13.2804 11.9571 13.5974 11.9571Z" fill="black"/>
<path d="M6.62731 10.9931C6.84231 11.1761 7.17031 11.1521 7.34531 10.9301C7.58831 10.6201 7.83331 10.1861 8.06531 9.70808C8.76931 8.25508 9.34731 6.39608 9.34731 6.39608C9.34731 6.39608 10.0573 8.56308 13.7333 8.51608C15.2953 8.49608 16.1063 9.03608 16.5383 9.66008C16.8543 10.1161 16.9733 10.6161 17.0033 10.9821C17.0203 11.1811 17.2573 11.2731 17.4053 11.1391L18.1813 10.4371C18.1813 10.4371 18.1833 10.3991 18.1853 10.3451C18.1943 10.0861 18.1993 9.25408 17.9763 8.18008C17.7073 6.88308 16.1653 4.63108 13.3013 4.04408C10.4373 3.45608 8.74831 5.30708 8.74831 5.30708C5.89931 6.01108 5.95531 9.67708 5.98831 10.3391C5.99131 10.4051 5.99531 10.4521 5.99531 10.4521L6.62931 10.9931H6.62731Z" fill="#FF8800"/>
<path d="M12.0823 15.725C12.5123 15.725 12.8733 15.435 12.9823 15.04C13.0163 14.916 12.9253 14.792 12.7963 14.792H11.3693C11.2403 14.792 11.1483 14.916 11.1833 15.04C11.2923 15.435 11.6533 15.725 12.0833 15.725H12.0823Z" fill="#5C2F17"/>
<path d="M15.5891 31.2788C14.9351 31.6908 14.1671 31.9388 13.3371 31.9388C12.5071 31.9388 11.7391 31.6908 11.0851 31.2788C9.21606 32.1348 7.91406 34.0168 7.91406 36.2068H18.7591C18.7591 34.0168 17.4591 32.1338 15.5891 31.2788Z" fill="#F56570"/>
<path d="M9.5897 29.6389L8.6317 30.3569C8.3847 30.5429 8.3957 30.9169 8.6537 31.0879L9.5047 31.6509C9.7517 31.8139 10.0857 31.6969 10.1767 31.4159L10.3947 30.7429C10.0667 30.4249 9.8017 30.0479 9.5897 29.6389Z" fill="#FF8800"/>
<path d="M16.5788 31.4159C16.6698 31.6969 17.0038 31.8139 17.2508 31.6509L18.1018 31.0879C18.3598 30.9169 18.3708 30.5429 18.1238 30.3569L17.1098 29.5959C16.9078 29.9979 16.6578 30.3709 16.3438 30.6869L16.5798 31.4149L16.5788 31.4159Z" fill="#FF8800"/>
<path d="M18.1213 26.4898C18.0113 26.4598 17.8912 26.6098 17.7412 26.6898C17.6812 26.7198 17.6312 26.7298 17.5812 26.7398C17.0612 26.7998 16.5912 26.7198 16.1712 26.5698C14.2812 25.8998 13.3513 23.5698 13.3513 23.5698C12.8613 24.5798 11.4212 25.7298 10.3712 26.4798C9.68125 26.9698 9.15125 27.2898 9.15125 27.2898C8.86125 26.6498 8.53125 26.5798 8.42125 26.5798C8.03125 26.8798 7.78125 27.3198 7.78125 27.8198C7.78125 28.6998 8.53125 29.4098 9.47125 29.4098C9.50125 29.4898 9.55125 29.5598 9.59125 29.6398C9.80125 30.0498 10.0712 30.4198 10.4012 30.7398C10.6112 30.9498 10.8412 31.1198 11.0912 31.2798C11.7412 31.6898 12.5112 31.9398 13.3412 31.9398C14.1712 31.9398 14.9412 31.6898 15.5912 31.2798C15.8612 31.1098 16.1212 30.9098 16.3412 30.6898C16.6612 30.3698 16.9112 29.9998 17.1112 29.5998C17.1412 29.5298 17.1812 29.4798 17.2112 29.4098C18.1412 29.4098 18.9012 28.6998 18.9012 27.8198C18.9012 27.2598 18.5913 26.7698 18.1213 26.4898ZM12.1512 28.0398C11.9012 28.0398 11.7012 27.7998 11.7012 27.4998C11.7012 27.1998 11.9012 26.9598 12.1512 26.9598C12.4012 26.9598 12.6013 27.1998 12.6013 27.4998C12.6013 27.7998 12.4012 28.0398 12.1512 28.0398ZM13.3412 30.3598C13.0012 30.3598 12.7212 30.1398 12.6312 29.8298C12.6012 29.7298 12.6812 29.6298 12.7812 29.6298H13.9012C14.0012 29.6298 14.0712 29.7298 14.0412 29.8298C13.9612 30.1398 13.6812 30.3598 13.3412 30.3598ZM14.5312 28.0398C14.2812 28.0398 14.0812 27.7998 14.0812 27.4998C14.0812 27.1998 14.2812 26.9598 14.5312 26.9598C14.7812 26.9598 14.9812 27.1998 14.9812 27.4998C14.9812 27.7998 14.7812 28.0398 14.5312 28.0398Z" fill="#FFC84D"/>
<path d="M12.1502 28.039C12.3992 28.039 12.6012 27.797 12.6012 27.498C12.6012 27.199 12.3992 26.957 12.1502 26.957C11.9012 26.957 11.6992 27.199 11.6992 27.498C11.6992 27.797 11.9012 28.039 12.1502 28.039Z" fill="black"/>
<path d="M14.5291 28.039C14.7782 28.039 14.9801 27.7968 14.9801 27.498C14.9801 27.1992 14.7782 26.957 14.5291 26.957C14.28 26.957 14.0781 27.1992 14.0781 27.498C14.0781 27.7968 14.28 28.039 14.5291 28.039Z" fill="black"/>
<path d="M13.3377 30.3639C13.6757 30.3639 13.9597 30.1359 14.0447 29.8259C14.0717 29.7279 13.9997 29.6309 13.8987 29.6309H12.7767C12.6757 29.6309 12.6037 29.7279 12.6307 29.8259C12.7157 30.1369 13.0007 30.3639 13.3377 30.3639Z" fill="#5C2F17"/>
<path d="M9.15053 27.2889C9.15053 27.2889 9.67953 26.9659 10.3675 26.4769C11.4225 25.7259 12.8545 24.5799 13.3535 23.5729C13.3535 23.5729 14.2775 25.8949 16.1655 26.5729C16.5875 26.7249 17.0575 26.7959 17.5765 26.7379C17.6255 26.7329 17.6825 26.7179 17.7385 26.6939C17.8845 26.6109 18.0075 26.4629 18.1205 26.4879C18.1225 26.4879 18.1255 26.4869 18.1275 26.4879C18.1615 24.2059 16.6285 22.2529 14.5355 21.6709C14.2795 21.5999 14.0105 21.5909 13.7485 21.6339L13.3205 21.7049C13.2355 21.7189 13.1495 21.7199 13.0645 21.7089L12.8455 21.6799C12.3615 21.6149 11.8655 21.6649 11.4135 21.8489C9.76553 22.5189 8.55753 24.0729 8.38553 25.9029C8.36353 26.1349 8.35853 26.3639 8.36753 26.5899C8.36753 26.5899 8.38753 26.5869 8.41653 26.5869C8.53353 26.5869 8.85453 26.6499 9.14953 27.2909L9.15053 27.2889Z" fill="#FF8800"/>
<path d="M28.7742 31.2109C28.1512 31.5719 27.4372 31.7939 26.6652 31.7939C25.8932 31.7939 25.1792 31.5719 24.5552 31.2109C22.6082 32.0339 21.2422 33.9609 21.2422 36.2079H32.0872C32.0872 33.9619 30.7212 32.0339 28.7742 31.2109Z" fill="#64A7FF"/>
<path d="M31.4316 26.33C30.9416 26.32 30.5216 26.24 30.1716 26.12C28.8916 25.69 28.4516 24.76 28.4516 24.76C28.4516 24.76 27.6016 25.77 26.6616 25.77C25.7316 25.77 24.7916 24.76 24.7916 24.76C24.2216 25.48 23.6316 25.88 23.1216 26.12C22.3616 26.47 21.7816 26.44 21.7816 26.44C21.7816 26.43 21.7916 26.42 21.7916 26.41C21.3716 26.7 21.1016 27.15 21.1016 27.68C21.1016 28.55 21.8616 29.26 22.7916 29.27C23.1616 30.09 23.7816 30.76 24.5516 31.21C25.1816 31.57 25.8916 31.79 26.6616 31.79C27.4316 31.79 28.1516 31.57 28.7716 31.21C29.5516 30.76 30.1716 30.09 30.5316 29.27C31.4716 29.26 32.2216 28.55 32.2216 27.68C32.2216 27.11 31.9116 26.61 31.4316 26.33ZM25.4716 27.89C25.2216 27.89 25.0216 27.65 25.0216 27.35C25.0216 27.05 25.2216 26.81 25.4716 26.81C25.7216 26.81 25.9216 27.05 25.9216 27.35C25.9216 27.65 25.7216 27.89 25.4716 27.89ZM26.6616 30.22C26.3216 30.22 26.0416 29.99 25.9616 29.68C25.9316 29.58 26.0016 29.49 26.1016 29.49H27.2216C27.3216 29.49 27.4016 29.58 27.3716 29.68C27.2816 29.99 27.0016 30.22 26.6616 30.22ZM27.8516 27.89C27.6016 27.89 27.4016 27.65 27.4016 27.35C27.4016 27.05 27.6016 26.81 27.8516 26.81C28.1016 26.81 28.3016 27.05 28.3016 27.35C28.3016 27.65 28.1016 27.89 27.8516 27.89Z" fill="#FFC84D"/>
<path d="M25.4744 27.893C25.7234 27.893 25.9254 27.651 25.9254 27.352C25.9254 27.053 25.7234 26.811 25.4744 26.811C25.2254 26.811 25.0234 27.053 25.0234 27.352C25.0234 27.651 25.2254 27.893 25.4744 27.893Z" fill="black"/>
<path d="M27.8533 27.893C28.1023 27.893 28.3043 27.651 28.3043 27.352C28.3043 27.053 28.1023 26.811 27.8533 26.811C27.6043 26.811 27.4023 27.053 27.4023 27.352C27.4023 27.651 27.6043 27.893 27.8533 27.893Z" fill="black"/>
<path d="M26.6619 30.2191C26.9999 30.2191 27.2839 29.9911 27.3689 29.6811C27.3959 29.5831 27.3239 29.4861 27.2229 29.4861H26.1009C25.9999 29.4861 25.9279 29.5831 25.9549 29.6811C26.0399 29.9911 26.3249 30.2191 26.6619 30.2191Z" fill="#5C2F17"/>
<path d="M23.1156 26.116C23.6256 25.879 24.2176 25.475 24.7866 24.762C24.7866 24.762 25.7256 25.774 26.6616 25.774C27.5976 25.774 28.4526 24.762 28.4526 24.762C28.4526 24.762 28.8906 25.692 30.1686 26.124C30.5206 26.243 30.9376 26.321 31.4276 26.334C31.4686 26.334 31.5016 26.344 31.5436 26.344C31.5866 23.436 29.0836 21.061 26.1206 21.379C23.8416 21.624 22.0166 23.476 21.8016 25.758C21.7806 25.977 21.7776 26.194 21.7846 26.407C21.7846 26.419 21.7826 26.432 21.7846 26.445C21.7846 26.445 22.3566 26.471 23.1166 26.117L23.1156 26.116Z" fill="#FF8800"/>
</g>
<defs>
<clipPath id="clip0_361_2169">
<rect width="40" height="40" fill="white"/>
</clipPath>
</defs>
</svg>
