<svg width="40" height="40" viewBox="0 0 40 40" fill="none" xmlns="http://www.w3.org/2000/svg">
<g clip-path="url(#clip0_361_2211)">
<path d="M21.3213 26.7329L29.6833 36.1559C30.3533 36.9109 31.5143 36.9639 32.2503 36.2729L34.0373 34.5949C34.7703 33.9069 34.7933 32.7499 34.0883 32.0329L25.4963 23.2869L23.4903 29.1789L21.3213 26.7329Z" fill="#4E5968"/>
<path d="M18.2388 15.898L18.2378 15.897L14.6758 19.243V19.244L17.3918 22.304L21.0958 18.806L18.2388 15.898Z" fill="#4E5968"/>
<path d="M21.3242 26.7331L23.4942 29.1791L25.5002 23.2871L25.0302 22.8091L21.3242 26.7331Z" fill="#2E383D"/>
<path d="M18.2391 15.8971L14.7781 12.2141C14.7781 12.2141 13.0121 10.4761 13.8871 9.21114C16.0901 6.02714 21.2721 8.34414 21.2721 8.34414L21.4311 7.61814C13.5471 2.05414 6.58209 9.08614 6.58209 9.08614L1.69209 13.7811C1.44509 14.0171 1.43509 14.4081 1.66909 14.6571L4.31609 17.4751C4.57109 17.7641 5.01309 17.7921 5.30209 17.5371L6.39909 16.5371C8.07209 14.9871 9.56909 13.9111 11.0601 15.3931L14.6771 19.2431L18.2401 15.8961L18.2391 15.8971Z" fill="#ABB7C7"/>
<path d="M29.6096 19.856C31.9646 20.345 34.5106 19.679 36.3386 17.851C38.2186 15.971 38.8726 13.331 38.3026 10.921C38.1946 10.463 37.6196 10.302 37.2866 10.635L34.0476 13.874L30.5216 13.221L29.8686 9.69503L33.1076 6.45603C33.4396 6.12403 33.2786 5.54804 32.8216 5.44004C30.4116 4.87004 27.7716 5.52403 25.8916 7.40303C24.0236 9.27103 23.3706 11.888 23.9236 14.285C24.1496 15.264 23.7666 16.287 23.0356 16.977L21.0986 18.806L17.3946 22.304L8.19665 30.99C6.82665 32.27 6.78965 34.43 8.11465 35.756C9.44065 37.081 11.6006 37.045 12.8806 35.674L21.3246 26.733L25.0306 22.809L26.9676 20.758C27.6456 20.04 28.6426 19.655 29.6096 19.856Z" fill="#ABB7C7"/>
</g>
<defs>
<clipPath id="clip0_361_2211">
<rect width="40" height="40" fill="white"/>
</clipPath>
</defs>
</svg>
